<?xml version="1.0" encoding="utf-8"?>
<!-- Generator: Adobe Illustrator 24.1.3, SVG Export Plug-In . SVG Version: 6.00 Build 0)  -->
<svg version="1.1" id="Layer_1" xmlns="http://www.w3.org/2000/svg" xmlns:xlink="http://www.w3.org/1999/xlink" x="0px" y="0px"
	 viewBox="0 0 1080 1080" style="enable-background:new 0 0 1080 1080;" xml:space="preserve">
<style type="text/css">
	.st0{fill:#CF0016;}
</style>
<g>
	<path class="st0" d="M455.7,380.6H317.5v141.6h-85.7V166.8h237.8v66.2H317.5v81.8h138.2V380.6z"/>
	<path class="st0" d="M591,456.3h149.2v65.9H505.3V166.8H591V456.3z"/>
	<path class="st0" d="M1061.7,351.8c0,34.7-6.4,65.3-19.3,92c-12.9,26.7-31.1,47.2-54.8,61.6s-50.7,21.6-80.9,21.6
		s-57.1-7-80.6-20.9s-41.7-33.8-54.8-59.7c-13.1-25.9-20-55.6-20.6-89.1v-20c0-34.8,6.4-65.6,19.2-92.2
		c12.8-26.6,31.1-47.2,54.9-61.6c23.8-14.5,51-21.7,81.4-21.7c30.1,0,57,7.2,80.6,21.5c23.6,14.3,42,34.7,55.1,61.2
		c13.1,26.5,19.7,56.8,19.9,90.9V351.8z M974.5,336.9c0-35.3-5.9-62.1-17.7-80.4C945,238.2,928.1,229,906.2,229
		c-43,0-65.7,32.2-68.1,96.7l-0.2,26.1c0,34.8,5.8,61.6,17.3,80.3c11.6,18.7,28.7,28.1,51.5,28.1c21.6,0,38.3-9.2,50-27.6
		c11.7-18.4,17.7-44.8,17.8-79.3V336.9z"/>
</g>
</svg>
