<?xml version="1.0" encoding="utf-8"?>
<!-- Generator: Adobe Illustrator 24.1.3, SVG Export Plug-In . SVG Version: 6.00 Build 0)  -->
<svg version="1.1" id="Layer_1" xmlns="http://www.w3.org/2000/svg" xmlns:xlink="http://www.w3.org/1999/xlink" x="0px" y="0px"
	 viewBox="0 0 1080 1080" style="enable-background:new 0 0 1080 1080;" xml:space="preserve">
<style type="text/css">
	.st0{fill:#CF0016;}
</style>
<g>
	<path class="st0" d="M205.9,396.5h-46.4v125.7H73.9V166.8h139.9c42.2,0,75.1,9.3,98.9,28c23.8,18.7,35.6,45.1,35.6,79.3
		c0,24.7-5,45.2-15,61.5s-25.7,29.4-47,39.5l74.2,143.5v3.7h-91.8L205.9,396.5z M159.5,330.6h54.2c16.3,0,28.5-4.3,36.7-12.8
		c8.2-8.6,12.3-20.5,12.3-35.9c0-15.3-4.2-27.4-12.5-36.1s-20.5-13.1-36.6-13.1h-54.2V330.6z"/>
	<path class="st0" d="M620.5,371.4H485.7v85h159.2v65.9H400V166.8h245.4v66.2H485.7v75h134.8V371.4z"/>
	<path class="st0" d="M976.7,522.2h-85.2l-126-221.2v221.2h-85.7V166.8h85.7L891.2,388V166.8h85.4V522.2z"/>
</g>
</svg>
