<?xml version="1.0" encoding="utf-8"?>
<!-- Generator: Adobe Illustrator 24.1.3, SVG Export Plug-In . SVG Version: 6.00 Build 0)  -->
<svg version="1.1" id="Layer_1" xmlns="http://www.w3.org/2000/svg" xmlns:xlink="http://www.w3.org/1999/xlink" x="0px" y="0px"
	 viewBox="0 0 1080 1080" style="enable-background:new 0 0 1080 1080;" xml:space="preserve">
<style type="text/css">
	.st0{fill:#CF0016;}
</style>
<g>
	<path class="st0" d="M311.5,401.9c-1.1,24.7-7.8,46.6-20,65.6c-12.2,19-29.3,33.7-51.4,44.1c-22.1,10.4-47.2,15.6-75.6,15.6
		c-46.7,0-83.5-15.2-110.4-45.7C27.3,451,13.8,408.1,13.8,352.6V335c0-34.8,6.1-65.3,18.2-91.4c12.1-26.1,29.6-46.3,52.4-60.5
		c22.8-14.2,49.2-21.4,79.1-21.4c43.1,0,77.8,11.4,104,34.1c26.2,22.7,41.1,54,44.7,93.9h-85.4c-0.7-21.6-6.1-37.2-16.4-46.6
		c-10.3-9.4-25.9-14.2-46.9-14.2c-21.3,0-36.9,8-46.9,23.9c-9.9,16-15.1,41.4-15.6,76.4v25.1c0,37.9,4.8,65,14.3,81.3
		c9.5,16.3,25.9,24.4,49.2,24.4c19.7,0,34.7-4.6,45.2-13.9c10.4-9.3,15.9-24,16.6-44.2H311.5z"/>
	<path class="st0" d="M443.3,522.2h-85.4V166.8h85.4V522.2z"/>
	<path class="st0" d="M709.2,455.8H591.7l-20.5,66.4h-91.6L610,166.8h80.6L822,522.2h-92L709.2,455.8z M612.2,389.7h76.4
		l-38.3-123.3L612.2,389.7z"/>
</g>
</svg>
